<svg width="24" height="32" viewBox="0 0 24 32" fill="none" xmlns="http://www.w3.org/2000/svg">
<path d="M19.5 21.0865V31.2597C19.5 31.3906 19.4648 31.5192 19.398 31.6324C19.3313 31.7456 19.2352 31.8392 19.1198 31.9038C19.0043 31.9684 18.8736 32.0015 18.7409 31.9999C18.6082 31.9984 18.4783 31.9621 18.3645 31.8947L12 28.1257L5.6355 31.8947C5.52156 31.9621 5.39154 31.9984 5.25872 32C5.1259 32.0015 4.99506 31.9682 4.87956 31.9034C4.76407 31.8387 4.66807 31.7448 4.60138 31.6314C4.53469 31.5181 4.49971 31.3893 4.5 31.2582V21.088C2.55922 19.5544 1.14899 17.4638 0.464189 15.1051C-0.220611 12.7463 -0.146166 10.2359 0.677237 7.92072C1.50064 5.60553 3.03234 3.5999 5.06067 2.18101C7.08901 0.762109 9.51381 0 12 0C14.4862 0 16.911 0.762109 18.9393 2.18101C20.9677 3.5999 22.4994 5.60553 23.3228 7.92072C24.1462 10.2359 24.2206 12.7463 23.5358 15.1051C22.851 17.4638 21.4408 19.5544 19.5 21.088M12 20.7238C14.3869 20.7238 16.6761 19.788 18.364 18.1223C20.0518 16.4565 21 14.1973 21 11.8415C21 9.48582 20.0518 7.22658 18.364 5.56083C16.6761 3.89508 14.3869 2.95927 12 2.95927C9.61305 2.95927 7.32387 3.89508 5.63604 5.56083C3.94821 7.22658 3 9.48582 3 11.8415C3 14.1973 3.94821 16.4565 5.63604 18.1223C7.32387 19.788 9.61305 20.7238 12 20.7238ZM12 17.7631C10.4087 17.7631 8.88258 17.1392 7.75736 16.0287C6.63214 14.9182 6 13.412 6 11.8415C6 10.2711 6.63214 8.7649 7.75736 7.6544C8.88258 6.5439 10.4087 5.92003 12 5.92003C13.5913 5.92003 15.1174 6.5439 16.2426 7.6544C17.3679 8.7649 18 10.2711 18 11.8415C18 13.412 17.3679 14.9182 16.2426 16.0287C15.1174 17.1392 13.5913 17.7631 12 17.7631Z" fill="#FFF8E7"/>
</svg>
